<svg width="24" height="24" viewBox="0 0 24 24" fill="none" xmlns="http://www.w3.org/2000/svg">
<path d="M19.5141 4.48594C17.5313 2.50313 14.3227 2.50313 12.3422 4.48594L10.0711 6.75703L11.2664 7.95234L13.5375 5.68125C14.7985 4.42031 16.9266 4.28672 18.3188 5.68125C19.7133 7.07578 19.5797 9.20156 18.3188 10.4625L16.0477 12.7336L17.2453 13.9313L19.5164 11.6602C21.4945 9.67734 21.4945 6.46875 19.5141 4.48594ZM10.4649 18.3187C9.20392 19.5797 7.07579 19.7133 5.68361 18.3187C4.28907 16.9242 4.42267 14.7984 5.68361 13.5375L7.9547 11.2664L6.75704 10.0688L4.48595 12.3398C2.50314 14.3227 2.50314 17.5312 4.48595 19.5117C6.46876 21.4922 9.67736 21.4945 11.6578 19.5117L13.9289 17.2406L12.7336 16.0453L10.4649 18.3187ZM6.10079 4.90781C6.06555 4.87292 6.01796 4.85334 5.96837 4.85334C5.91878 4.85334 5.87119 4.87292 5.83595 4.90781L4.90782 5.83594C4.87293 5.87118 4.85336 5.91877 4.85336 5.96836C4.85336 6.01795 4.87293 6.06554 4.90782 6.10078L17.9016 19.0945C17.9742 19.1672 18.0938 19.1672 18.1664 19.0945L19.0945 18.1664C19.1672 18.0937 19.1672 17.9742 19.0945 17.9016L6.10079 4.90781Z" fill="#F4E452"/>
</svg>
