<svg width="883" height="883" viewBox="0 0 883 883" fill="none" xmlns="http://www.w3.org/2000/svg">
<path d="M441.241 882.482C684.932 882.482 882.482 684.932 882.482 441.241C882.482 197.55 684.932 0 441.241 0C197.55 0 0 197.55 0 441.241C0 684.932 197.55 882.482 441.241 882.482Z" fill="#FFE812"/>
<path d="M658.964 223.518C600.808 165.362 523.486 133.334 441.241 133.334C358.996 133.334 281.674 165.361 223.517 223.518C165.361 281.674 133.333 358.996 133.333 441.241C133.333 523.486 165.361 600.807 223.517 658.964C281.673 717.12 358.996 749.148 441.241 749.148C523.486 749.148 600.807 717.121 658.964 658.964C717.121 600.807 749.148 523.486 749.148 441.241C749.148 358.996 717.121 281.674 658.964 223.518ZM441.242 719.147C419.442 719.147 395.831 690.724 378.082 643.117C369.265 619.467 362.196 592.32 357.042 562.81H525.441C520.288 592.319 513.218 619.466 504.401 643.117C486.652 690.724 463.042 719.147 441.242 719.147ZM352.57 532.81C348.938 503.731 347.044 472.9 347.044 441.241C347.044 409.582 348.938 378.75 352.57 349.672H529.913C533.545 378.751 535.439 409.582 535.439 441.241C535.439 472.9 533.545 503.732 529.913 532.81H352.57ZM441.242 163.334C463.042 163.334 486.652 191.757 504.401 239.364C513.218 263.014 520.287 290.161 525.441 319.671H357.042C362.196 290.161 369.265 263.014 378.082 239.364C395.831 191.757 419.442 163.334 441.242 163.334ZM560.115 349.671H703.761C713.869 378.723 719.147 409.574 719.147 441.24C719.147 472.906 713.869 503.758 703.761 532.809H560.115C563.615 503.559 565.439 472.757 565.439 441.24C565.439 409.723 563.615 378.921 560.115 349.671ZM691.284 319.671H555.853C550.314 286.309 542.46 255.571 532.511 228.885C523.57 204.902 513.194 185.135 501.744 169.909C552.876 181.205 599.83 206.809 637.752 244.731C659.957 266.937 677.923 292.247 691.284 319.671ZM244.731 244.731C282.653 206.81 329.606 181.205 380.739 169.909C369.289 185.135 358.913 204.902 349.972 228.885C340.023 255.571 332.169 286.31 326.63 319.671H191.198C204.559 292.247 222.526 266.937 244.731 244.731ZM178.721 349.671H322.367C318.867 378.921 317.043 409.723 317.043 441.24C317.043 472.757 318.866 503.56 322.367 532.809H178.721C168.613 503.757 163.335 472.906 163.335 441.24C163.335 409.574 168.613 378.723 178.721 349.671ZM191.198 562.81H326.63C332.169 596.172 340.023 626.91 349.972 653.596C358.913 677.579 369.289 697.346 380.739 712.572C329.607 701.276 282.653 675.671 244.731 637.75C222.526 615.545 204.559 590.234 191.198 562.81ZM637.751 637.75C599.829 675.672 552.875 701.276 501.743 712.572C513.193 697.346 523.569 677.579 532.51 653.596C542.459 626.91 550.313 596.171 555.852 562.81H691.284C677.923 590.234 659.957 615.545 637.751 637.75Z" fill="#391C1E"/>
</svg>
