<svg width="370" height="58" viewBox="0 0 370 58" fill="none" xmlns="http://www.w3.org/2000/svg">
<path d="M29 58C45.0163 58 58 45.0163 58 29C58 12.9837 45.0163 0 29 0C12.9837 0 0 12.9837 0 29C0 45.0163 12.9837 58 29 58Z" fill="#FFE812"/>
<path d="M43.3096 14.6904C39.4874 10.8682 34.4055 8.76318 29 8.76318C23.5946 8.76318 18.5127 10.8681 14.6904 14.6904C10.8682 18.5126 8.76315 23.5945 8.76315 29C8.76315 34.4054 10.8682 39.4873 14.6904 43.3095C18.5126 47.1318 23.5946 49.2368 29 49.2368C34.4055 49.2368 39.4873 47.1318 43.3096 43.3095C47.1319 39.4873 49.2368 34.4054 49.2368 29C49.2368 23.5945 47.1319 18.5126 43.3096 14.6904ZM29.0001 47.265C27.5673 47.265 26.0155 45.3969 24.849 42.268C24.2695 40.7137 23.8049 38.9295 23.4661 36.9899H34.5339C34.1953 38.9294 33.7306 40.7136 33.1511 42.268C31.9846 45.3969 30.4329 47.265 29.0001 47.265ZM23.1722 35.0182C22.9335 33.1071 22.809 31.0807 22.809 29C22.809 26.9192 22.9335 24.8928 23.1722 22.9817H34.8279C35.0666 24.8929 35.1911 26.9192 35.1911 29C35.1911 31.0807 35.0666 33.1071 34.8279 35.0182H23.1722ZM29.0001 10.7349C30.4329 10.7349 31.9846 12.603 33.1511 15.7319C33.7306 17.2862 34.1952 19.0704 34.5339 21.0099H23.4661C23.8049 19.0704 24.2695 17.2862 24.849 15.7319C26.0155 12.603 27.5673 10.7349 29.0001 10.7349ZM36.8129 22.9817H46.2538C46.9181 24.8911 47.265 26.9187 47.265 28.9999C47.265 31.0811 46.9181 33.1088 46.2538 35.0182H36.8129C37.0429 33.0958 37.1628 31.0713 37.1628 28.9999C37.1628 26.9285 37.0429 24.9041 36.8129 22.9817ZM45.4338 21.0099H36.5327C36.1687 18.8173 35.6525 16.7971 34.9986 15.0432C34.411 13.4669 33.729 12.1677 32.9765 11.167C36.3371 11.9094 39.4231 13.5922 41.9154 16.0846C43.3748 17.5441 44.5556 19.2075 45.4338 21.0099ZM16.0846 16.0846C18.577 13.5923 21.6629 11.9094 25.0236 11.167C24.2711 12.1677 23.5891 13.4669 23.0015 15.0432C22.3476 16.7971 21.8314 18.8173 21.4674 21.0099H12.5663C13.4444 19.2075 14.6252 17.5441 16.0846 16.0846ZM11.7462 22.9817H21.1872C20.9571 24.9041 20.8373 26.9285 20.8373 28.9999C20.8373 31.0713 20.9571 33.0958 21.1872 35.0182H11.7462C11.0819 33.1088 10.735 31.0811 10.735 28.9999C10.735 26.9187 11.0819 24.8911 11.7462 22.9817ZM12.5663 36.9899H21.4674C21.8314 39.1826 22.3476 41.2028 23.0015 42.9567C23.5891 44.533 24.2711 45.8322 25.0236 46.8329C21.663 46.0905 18.577 44.4076 16.0846 41.9153C14.6252 40.4559 13.4444 38.7924 12.5663 36.9899ZM41.9154 41.9153C39.423 44.4077 36.337 46.0905 32.9764 46.8329C33.729 45.8322 34.4109 44.533 34.9986 42.9567C35.6524 41.2028 36.1686 39.1826 36.5327 36.9899H45.4338C44.5556 38.7924 43.3748 40.4559 41.9154 41.9153Z" fill="#391C1E"/>
<path d="M90.1094 2.32812V16.3594H88.625V2.32812H90.1094ZM80.7812 3.5V7.09375H84.5469V3.5H86.0156V13H79.2969V3.5H80.7812ZM80.7812 11.7812H84.5469V8.26562H80.7812V11.7812ZM98.6562 11.125C101.688 11.125 103.594 12.0781 103.609 13.7188C103.594 15.3438 101.688 16.3125 98.6562 16.2969C95.6562 16.3125 93.7344 15.3438 93.7344 13.7188C93.7344 12.0781 95.6562 11.125 98.6562 11.125ZM98.6562 12.25C96.5312 12.25 95.2031 12.7969 95.2188 13.7188C95.2031 14.625 96.5312 15.1562 98.6562 15.1562C100.797 15.1562 102.125 14.625 102.141 13.7188C102.125 12.7969 100.797 12.25 98.6562 12.25ZM103.5 3.01562V4.1875C103.5 5.3125 103.5 6.46875 103.109 7.90625L101.656 7.75C102.031 6.32031 102.031 5.28906 102.031 4.20312H93.8438V3.01562H103.5ZM105.094 8.76562V9.96875H92.3594V8.76562H97.4688V6.14062H98.9219V8.76562H105.094ZM111.266 4.34375C111.25 6.28125 112.578 8.04688 114.734 8.76562L113.984 9.9375C112.367 9.36719 111.148 8.22656 110.516 6.76562C109.891 8.33594 108.664 9.57812 107 10.1719L106.25 9.01562C108.438 8.23438 109.75 6.34375 109.75 4.34375V3H111.266V4.34375ZM117.781 11.4062V16.3281H116.297V12.6094H108.297V11.4062H117.781ZM117.781 2.32812V10.7344H116.297V2.32812H117.781Z" fill="white"/>
<path d="M80.0938 50V27.375H84.1562V37.7812H84.4688L93.3125 27.375H98.2812L89.5312 37.5312L98.375 50H93.4688L86.6875 40.2812L84.1562 43.25V50H80.0938ZM99.9062 45.2188C99.9062 41.4062 103.062 40.2812 106.219 40.0938C107.391 40.0156 109.828 39.875 110.562 39.8438V38.5C110.562 36.8125 109.469 35.8438 107.5 35.8438C105.719 35.8438 104.625 36.6562 104.312 37.875H100.469C100.75 35 103.344 32.8125 107.594 32.8125C110.812 32.8125 114.531 34.125 114.531 38.6562V50H110.719V47.6562H110.594C109.844 49.0938 108.25 50.3438 105.594 50.3438C102.344 50.3438 99.9062 48.5625 99.9062 45.2188ZM103.75 45.1875C103.75 46.6562 104.938 47.4062 106.625 47.4062C109.031 47.4062 110.594 45.8125 110.594 43.9062V42.5L106.844 42.75C104.938 42.9062 103.75 43.6875 103.75 45.1875ZM118.281 50V27.375H122.281V39.8438H122.562L128.656 33.0312H133.312L126.75 40.3438L133.719 50H128.969L123.75 42.7188L122.281 44.2812V50H118.281ZM134.906 45.2188C134.906 41.4062 138.062 40.2812 141.219 40.0938C142.391 40.0156 144.828 39.875 145.562 39.8438V38.5C145.562 36.8125 144.469 35.8438 142.5 35.8438C140.719 35.8438 139.625 36.6562 139.312 37.875H135.469C135.75 35 138.344 32.8125 142.594 32.8125C145.812 32.8125 149.531 34.125 149.531 38.6562V50H145.719V47.6562H145.594C144.844 49.0938 143.25 50.3438 140.594 50.3438C137.344 50.3438 134.906 48.5625 134.906 45.2188ZM138.75 45.1875C138.75 46.6562 139.938 47.4062 141.625 47.4062C144.031 47.4062 145.594 45.8125 145.594 43.9062V42.5L141.844 42.75C139.938 42.9062 138.75 43.6875 138.75 45.1875ZM160.688 50.3438C155.75 50.3438 152.562 46.8438 152.562 41.5938C152.562 36.3125 155.75 32.8125 160.688 32.8125C165.656 32.8125 168.812 36.3125 168.812 41.5938C168.812 46.8438 165.656 50.3438 160.688 50.3438ZM160.719 47.1562C163.438 47.1562 164.781 44.6875 164.781 41.5625C164.781 38.4688 163.438 35.9688 160.719 35.9688C157.938 35.9688 156.594 38.4688 156.594 41.5625C156.594 44.6875 157.938 47.1562 160.719 47.1562ZM169.844 30.7812V27.375H187.875V30.7812H180.906V50H176.844V30.7812H169.844ZM187.781 45.2188C187.781 41.4062 190.938 40.2812 194.094 40.0938C195.266 40.0156 197.703 39.875 198.438 39.8438V38.5C198.438 36.8125 197.344 35.8438 195.375 35.8438C193.594 35.8438 192.5 36.6562 192.188 37.875H188.344C188.625 35 191.219 32.8125 195.469 32.8125C198.688 32.8125 202.406 34.125 202.406 38.6562V50H198.594V47.6562H198.469C197.719 49.0938 196.125 50.3438 193.469 50.3438C190.219 50.3438 187.781 48.5625 187.781 45.2188ZM191.625 45.1875C191.625 46.6562 192.812 47.4062 194.5 47.4062C196.906 47.4062 198.469 45.8125 198.469 43.9062V42.5L194.719 42.75C192.812 42.9062 191.625 43.6875 191.625 45.1875ZM210.156 27.375V50H206.156V27.375H210.156ZM213.969 50V27.375H217.969V39.8438H218.25L224.344 33.0312H229L222.438 40.3438L229.406 50H224.656L219.438 42.7188L217.969 44.2812V50H213.969ZM243.938 50L237.562 27.375H241.938L246.031 44.0312H246.25L250.594 27.375H254.594L258.969 44.0625H259.156L263.25 27.375H267.625L261.25 50H257.219L252.688 34.0938H252.531L247.969 50H243.938ZM270.219 50V27.375H284.938V30.7812H274.281V36.9688H284.156V40.375H274.281V46.5625H285V50H270.219ZM288.844 50V27.375H297.5C302.406 27.375 304.844 29.875 304.844 33.25C304.844 36 303.094 37.5312 300.875 38.0625V38.2812C303.281 38.4062 305.719 40.4062 305.719 43.8438C305.719 47.375 303.188 50 298 50H288.844ZM297.375 46.5938C300.344 46.5938 301.594 45.3125 301.594 43.5312C301.594 41.5 300 39.9375 297.469 39.9375H292.906V46.5938H297.375ZM297 37C299.156 37 300.781 35.75 300.781 33.75C300.781 32 299.531 30.75 297.094 30.75H292.906V37H297Z" fill="white"/>
<path d="M325.8 51.2C324.707 51.2 323.933 50.8667 323.48 50.2C323.027 49.5333 322.8 48.72 322.8 47.76C322.8 47.0933 322.867 46.4667 323 45.88C323.16 45.2933 323.387 44.6267 323.68 43.88H323.6C323.387 43.88 323.28 43.7733 323.28 43.56C323.28 43.4533 323.387 43.1467 323.6 42.64C323.84 42.1333 324.133 41.52 324.48 40.8C324.853 40.08 325.227 39.3467 325.6 38.6C326 37.8533 326.36 37.1867 326.68 36.6C327.213 35.6133 327.8 34.6 328.44 33.56C329.08 32.4933 329.707 31.48 330.32 30.52C330.96 29.56 331.493 28.7733 331.92 28.16C332.88 26.8267 333.773 26.16 334.6 26.16H334.8C335.04 26.16 335.307 26.2 335.6 26.28C335.92 26.36 336.213 26.3733 336.48 26.32C336.08 26.7467 335.467 27.52 334.64 28.64C333.84 29.7333 332.96 30.9867 332 32.4C331.6 32.9867 331.093 33.7733 330.48 34.76C329.893 35.7467 329.267 36.8533 328.6 38.08C327.933 39.3067 327.307 40.56 326.72 41.84C326.16 43.0933 325.693 44.32 325.32 45.52C324.947 46.6933 324.76 47.7467 324.76 48.68C324.76 49.2933 324.867 49.72 325.08 49.96C325.293 50.2 325.56 50.32 325.88 50.32C326.28 50.32 326.747 50.0933 327.28 49.64C327.84 49.16 328.4 48.5467 328.96 47.8C329.547 47.0267 330.08 46.1867 330.56 45.28C331.04 44.3467 331.427 43.4133 331.72 42.48C332.04 41.52 332.2 40.64 332.2 39.84C332.2 39.0667 332.053 38.5067 331.76 38.16C331.493 37.8133 331.133 37.64 330.68 37.64C330.493 37.64 330.307 37.6933 330.12 37.8C329.933 37.88 329.773 37.92 329.64 37.92C329.507 37.92 329.44 37.8533 329.44 37.72C329.44 37.5867 329.573 37.44 329.84 37.28C330.133 37.12 330.56 37.04 331.12 37.04C331.627 37.04 332.133 37.1733 332.64 37.44C333.173 37.7067 333.613 38.1467 333.96 38.76C334.307 39.3467 334.48 40.12 334.48 41.08C334.48 42.2267 334.213 43.4 333.68 44.6C333.147 45.7733 332.453 46.8667 331.6 47.88C330.747 48.8667 329.8 49.6667 328.76 50.28C327.747 50.8933 326.76 51.2 325.8 51.2ZM339.326 51.16C338.339 51.16 337.446 50.84 336.646 50.2C335.873 49.56 335.486 48.5867 335.486 47.28C335.486 46.1867 335.726 45.0267 336.206 43.8C336.713 42.5733 337.366 41.4267 338.166 40.36C338.993 39.2667 339.899 38.3867 340.886 37.72C341.899 37.0267 342.913 36.68 343.926 36.68C344.433 36.68 344.926 36.8267 345.406 37.12C345.886 37.4133 346.126 37.92 346.126 38.64C346.126 39.3067 345.873 40.04 345.366 40.84C344.859 41.64 344.139 42.3867 343.206 43.08C342.806 43.3733 342.299 43.6533 341.686 43.92C341.073 44.1867 340.459 44.4133 339.846 44.6C339.233 44.76 338.726 44.84 338.326 44.84C338.193 45.16 338.059 45.5867 337.926 46.12C337.819 46.6533 337.766 47.2 337.766 47.76C337.766 48.4267 337.899 49.0267 338.166 49.56C338.433 50.0933 338.926 50.36 339.646 50.36C340.526 50.36 341.339 50.1067 342.086 49.6C342.859 49.0933 343.539 48.4533 344.126 47.68C344.739 46.9067 345.259 46.12 345.686 45.32C346.113 44.52 346.446 43.84 346.686 43.28C347.006 43.28 347.166 43.4 347.166 43.64C346.819 44.3867 346.419 45.2 345.966 46.08C345.539 46.96 345.019 47.7867 344.406 48.56C343.819 49.3067 343.099 49.9333 342.246 50.44C341.419 50.92 340.446 51.16 339.326 51.16ZM338.606 44.12C338.979 44.12 339.606 43.9867 340.486 43.72C341.366 43.4267 342.166 42.9733 342.886 42.36C343.579 41.7467 344.113 41.08 344.486 40.36C344.859 39.6133 345.046 38.9867 345.046 38.48C345.046 37.8933 344.833 37.6 344.406 37.6C344.086 37.6 343.646 37.8133 343.086 38.24C342.526 38.6667 341.833 39.3867 341.006 40.4C340.499 41.04 340.019 41.7333 339.566 42.48C339.113 43.2267 338.793 43.7733 338.606 44.12ZM354.96 29.88C354.614 30.3867 354.227 31.0267 353.8 31.8C353.374 32.5733 352.974 33.32 352.6 34.04C352.254 34.76 351.987 35.3067 351.8 35.68H355.48C355.48 35.7867 355.427 35.96 355.32 36.2C355.24 36.44 355.067 36.6133 354.8 36.72H351.32C351 37.44 350.627 38.3067 350.2 39.32C349.8 40.3333 349.4 41.3867 349 42.48C348.627 43.5733 348.307 44.6 348.04 45.56C347.8 46.4933 347.68 47.2533 347.68 47.84C347.68 48.64 347.787 49.24 348 49.64C348.214 50.0133 348.6 50.2 349.16 50.2C349.88 50.2 350.574 49.8533 351.24 49.16C351.907 48.44 352.534 47.5467 353.12 46.48C353.734 45.4133 354.267 44.3467 354.72 43.28C355.04 43.28 355.2 43.4 355.2 43.64C354.907 44.36 354.547 45.1467 354.12 46C353.694 46.8533 353.2 47.68 352.64 48.48C352.107 49.2533 351.494 49.8933 350.8 50.4C350.134 50.88 349.387 51.12 348.56 51.12C347.44 51.12 346.68 50.8133 346.28 50.2C345.88 49.56 345.68 48.7467 345.68 47.76C345.68 47.04 345.814 46.1733 346.08 45.16C346.347 44.12 346.667 43.0533 347.04 41.96C347.44 40.8667 347.827 39.8533 348.2 38.92C348.574 37.96 348.867 37.2267 349.08 36.72H346.52C346.52 36.5067 346.614 36.28 346.8 36.04C346.987 35.8 347.187 35.68 347.4 35.68H349.52C349.734 35.2533 349.974 34.72 350.24 34.08C350.534 33.44 350.92 32.7333 351.4 31.96C351.8 31.32 352.307 30.8133 352.92 30.44C353.56 30.0667 354.24 29.88 354.96 29.88ZM363.407 51.12C362.794 51.12 362.247 50.9467 361.767 50.6C361.314 50.2533 361.087 49.5467 361.087 48.48C361.087 48.0267 361.114 47.6 361.167 47.2C361.247 46.8 361.341 46.3733 361.447 45.92C361.207 46.32 360.874 46.8133 360.447 47.4C360.021 47.9867 359.541 48.56 359.007 49.12C358.501 49.68 357.967 50.1467 357.407 50.52C356.874 50.8933 356.367 51.08 355.887 51.08C355.194 51.08 354.634 50.7733 354.207 50.16C353.781 49.52 353.567 48.6933 353.567 47.68C353.567 46.5867 353.821 45.4133 354.327 44.16C354.834 42.9067 355.527 41.7067 356.407 40.56C357.287 39.4133 358.301 38.48 359.447 37.76C360.594 37.04 361.794 36.68 363.047 36.68C363.661 36.68 364.247 36.7867 364.807 37C365.367 37.1867 365.861 37.5067 366.287 37.96C366.474 38.1467 366.567 38.36 366.567 38.6C366.567 38.76 366.501 38.8933 366.367 39C366.234 39.1067 366.061 39.1333 365.847 39.08C365.554 38.1467 364.927 37.68 363.967 37.68C363.514 37.68 362.994 37.8267 362.407 38.12C361.687 38.4933 360.914 39.0933 360.087 39.92C359.287 40.72 358.527 41.64 357.807 42.68C357.114 43.6933 356.541 44.72 356.087 45.76C355.634 46.8 355.407 47.7467 355.407 48.6C355.407 49.48 355.741 49.92 356.407 49.92C356.994 49.92 357.594 49.64 358.207 49.08C358.847 48.52 359.447 47.8267 360.007 47C360.594 46.1467 361.127 45.3067 361.607 44.48C362.087 43.6533 362.461 42.9867 362.727 42.48C363.127 41.76 363.501 41.16 363.847 40.68C364.194 40.2 364.687 39.96 365.327 39.96C365.621 39.96 365.914 40 366.207 40.08C366.501 40.16 366.807 40.1733 367.127 40.12C366.327 40.92 365.621 41.8667 365.007 42.96C364.421 44.0533 363.967 45.1333 363.647 46.2C363.327 47.24 363.167 48.12 363.167 48.84C363.167 49.64 363.434 50.04 363.967 50.04C364.394 50.04 364.847 49.8 365.327 49.32C365.834 48.84 366.314 48.24 366.767 47.52C367.247 46.7733 367.687 46.0267 368.087 45.28C368.487 44.5067 368.807 43.84 369.047 43.28C369.181 43.28 369.287 43.2933 369.367 43.32C369.474 43.3467 369.527 43.4533 369.527 43.64C369.501 43.7467 369.447 43.8667 369.367 44C369.314 44.1067 369.221 44.3067 369.087 44.6C368.874 45.0267 368.581 45.6 368.207 46.32C367.834 47.04 367.394 47.7733 366.887 48.52C366.381 49.24 365.834 49.8533 365.247 50.36C364.661 50.8667 364.047 51.12 363.407 51.12Z" fill="#A44042"/>
</svg>
