<svg width="292" height="58" viewBox="0 0 292 58" fill="none" xmlns="http://www.w3.org/2000/svg">
<path d="M12.1094 2.32812V16.3594H10.625V2.32812H12.1094ZM2.78125 3.5V7.09375H6.54688V3.5H8.01562V13H1.29688V3.5H2.78125ZM2.78125 11.7812H6.54688V8.26562H2.78125V11.7812ZM20.6562 11.125C23.6875 11.125 25.5938 12.0781 25.6094 13.7188C25.5938 15.3438 23.6875 16.3125 20.6562 16.2969C17.6562 16.3125 15.7344 15.3438 15.7344 13.7188C15.7344 12.0781 17.6562 11.125 20.6562 11.125ZM20.6562 12.25C18.5312 12.25 17.2031 12.7969 17.2188 13.7188C17.2031 14.625 18.5312 15.1562 20.6562 15.1562C22.7969 15.1562 24.125 14.625 24.1406 13.7188C24.125 12.7969 22.7969 12.25 20.6562 12.25ZM25.5 3.01562V4.1875C25.5 5.3125 25.5 6.46875 25.1094 7.90625L23.6562 7.75C24.0312 6.32031 24.0312 5.28906 24.0312 4.20312H15.8438V3.01562H25.5ZM27.0938 8.76562V9.96875H14.3594V8.76562H19.4688V6.14062H20.9219V8.76562H27.0938ZM33.2656 4.34375C33.25 6.28125 34.5781 8.04688 36.7344 8.76562L35.9844 9.9375C34.3672 9.36719 33.1484 8.22656 32.5156 6.76562C31.8906 8.33594 30.6641 9.57812 29 10.1719L28.25 9.01562C30.4375 8.23438 31.75 6.34375 31.75 4.34375V3H33.2656V4.34375ZM39.7812 11.4062V16.3281H38.2969V12.6094H30.2969V11.4062H39.7812ZM39.7812 2.32812V10.7344H38.2969V2.32812H39.7812Z" fill="black"/>
<path d="M2.09375 50V27.375H6.15625V37.7812H6.46875L15.3125 27.375H20.2812L11.5312 37.5312L20.375 50H15.4688L8.6875 40.2812L6.15625 43.25V50H2.09375ZM21.9062 45.2188C21.9062 41.4062 25.0625 40.2812 28.2188 40.0938C29.3906 40.0156 31.8281 39.875 32.5625 39.8438V38.5C32.5625 36.8125 31.4688 35.8438 29.5 35.8438C27.7188 35.8438 26.625 36.6562 26.3125 37.875H22.4688C22.75 35 25.3438 32.8125 29.5938 32.8125C32.8125 32.8125 36.5312 34.125 36.5312 38.6562V50H32.7188V47.6562H32.5938C31.8438 49.0938 30.25 50.3438 27.5938 50.3438C24.3438 50.3438 21.9062 48.5625 21.9062 45.2188ZM25.75 45.1875C25.75 46.6562 26.9375 47.4062 28.625 47.4062C31.0312 47.4062 32.5938 45.8125 32.5938 43.9062V42.5L28.8438 42.75C26.9375 42.9062 25.75 43.6875 25.75 45.1875ZM40.2812 50V27.375H44.2812V39.8438H44.5625L50.6562 33.0312H55.3125L48.75 40.3438L55.7188 50H50.9688L45.75 42.7188L44.2812 44.2812V50H40.2812ZM56.9062 45.2188C56.9062 41.4062 60.0625 40.2812 63.2188 40.0938C64.3906 40.0156 66.8281 39.875 67.5625 39.8438V38.5C67.5625 36.8125 66.4688 35.8438 64.5 35.8438C62.7188 35.8438 61.625 36.6562 61.3125 37.875H57.4688C57.75 35 60.3438 32.8125 64.5938 32.8125C67.8125 32.8125 71.5312 34.125 71.5312 38.6562V50H67.7188V47.6562H67.5938C66.8438 49.0938 65.25 50.3438 62.5938 50.3438C59.3438 50.3438 56.9062 48.5625 56.9062 45.2188ZM60.75 45.1875C60.75 46.6562 61.9375 47.4062 63.625 47.4062C66.0312 47.4062 67.5938 45.8125 67.5938 43.9062V42.5L63.8438 42.75C61.9375 42.9062 60.75 43.6875 60.75 45.1875ZM82.6875 50.3438C77.75 50.3438 74.5625 46.8438 74.5625 41.5938C74.5625 36.3125 77.75 32.8125 82.6875 32.8125C87.6562 32.8125 90.8125 36.3125 90.8125 41.5938C90.8125 46.8438 87.6562 50.3438 82.6875 50.3438ZM82.7188 47.1562C85.4375 47.1562 86.7812 44.6875 86.7812 41.5625C86.7812 38.4688 85.4375 35.9688 82.7188 35.9688C79.9375 35.9688 78.5938 38.4688 78.5938 41.5625C78.5938 44.6875 79.9375 47.1562 82.7188 47.1562ZM91.8438 30.7812V27.375H109.875V30.7812H102.906V50H98.8438V30.7812H91.8438ZM109.781 45.2188C109.781 41.4062 112.938 40.2812 116.094 40.0938C117.266 40.0156 119.703 39.875 120.438 39.8438V38.5C120.438 36.8125 119.344 35.8438 117.375 35.8438C115.594 35.8438 114.5 36.6562 114.188 37.875H110.344C110.625 35 113.219 32.8125 117.469 32.8125C120.688 32.8125 124.406 34.125 124.406 38.6562V50H120.594V47.6562H120.469C119.719 49.0938 118.125 50.3438 115.469 50.3438C112.219 50.3438 109.781 48.5625 109.781 45.2188ZM113.625 45.1875C113.625 46.6562 114.812 47.4062 116.5 47.4062C118.906 47.4062 120.469 45.8125 120.469 43.9062V42.5L116.719 42.75C114.812 42.9062 113.625 43.6875 113.625 45.1875ZM132.156 27.375V50H128.156V27.375H132.156ZM135.969 50V27.375H139.969V39.8438H140.25L146.344 33.0312H151L144.438 40.3438L151.406 50H146.656L141.438 42.7188L139.969 44.2812V50H135.969ZM165.938 50L159.562 27.375H163.938L168.031 44.0312H168.25L172.594 27.375H176.594L180.969 44.0625H181.156L185.25 27.375H189.625L183.25 50H179.219L174.688 34.0938H174.531L169.969 50H165.938ZM192.219 50V27.375H206.938V30.7812H196.281V36.9688H206.156V40.375H196.281V46.5625H207V50H192.219ZM210.844 50V27.375H219.5C224.406 27.375 226.844 29.875 226.844 33.25C226.844 36 225.094 37.5312 222.875 38.0625V38.2812C225.281 38.4062 227.719 40.4062 227.719 43.8438C227.719 47.375 225.188 50 220 50H210.844ZM219.375 46.5938C222.344 46.5938 223.594 45.3125 223.594 43.5312C223.594 41.5 222 39.9375 219.469 39.9375H214.906V46.5938H219.375ZM219 37C221.156 37 222.781 35.75 222.781 33.75C222.781 32 221.531 30.75 219.094 30.75H214.906V37H219Z" fill="black"/>
<path d="M247.8 51.2C246.707 51.2 245.933 50.8667 245.48 50.2C245.027 49.5333 244.8 48.72 244.8 47.76C244.8 47.0933 244.867 46.4667 245 45.88C245.16 45.2933 245.387 44.6267 245.68 43.88H245.6C245.387 43.88 245.28 43.7733 245.28 43.56C245.28 43.4533 245.387 43.1467 245.6 42.64C245.84 42.1333 246.133 41.52 246.48 40.8C246.853 40.08 247.227 39.3467 247.6 38.6C248 37.8533 248.36 37.1867 248.68 36.6C249.213 35.6133 249.8 34.6 250.44 33.56C251.08 32.4933 251.707 31.48 252.32 30.52C252.96 29.56 253.493 28.7733 253.92 28.16C254.88 26.8267 255.773 26.16 256.6 26.16H256.8C257.04 26.16 257.307 26.2 257.6 26.28C257.92 26.36 258.213 26.3733 258.48 26.32C258.08 26.7467 257.467 27.52 256.64 28.64C255.84 29.7333 254.96 30.9867 254 32.4C253.6 32.9867 253.093 33.7733 252.48 34.76C251.893 35.7467 251.267 36.8533 250.6 38.08C249.933 39.3067 249.307 40.56 248.72 41.84C248.16 43.0933 247.693 44.32 247.32 45.52C246.947 46.6933 246.76 47.7467 246.76 48.68C246.76 49.2933 246.867 49.72 247.08 49.96C247.293 50.2 247.56 50.32 247.88 50.32C248.28 50.32 248.747 50.0933 249.28 49.64C249.84 49.16 250.4 48.5467 250.96 47.8C251.547 47.0267 252.08 46.1867 252.56 45.28C253.04 44.3467 253.427 43.4133 253.72 42.48C254.04 41.52 254.2 40.64 254.2 39.84C254.2 39.0667 254.053 38.5067 253.76 38.16C253.493 37.8133 253.133 37.64 252.68 37.64C252.493 37.64 252.307 37.6933 252.12 37.8C251.933 37.88 251.773 37.92 251.64 37.92C251.507 37.92 251.44 37.8533 251.44 37.72C251.44 37.5867 251.573 37.44 251.84 37.28C252.133 37.12 252.56 37.04 253.12 37.04C253.627 37.04 254.133 37.1733 254.64 37.44C255.173 37.7067 255.613 38.1467 255.96 38.76C256.307 39.3467 256.48 40.12 256.48 41.08C256.48 42.2267 256.213 43.4 255.68 44.6C255.147 45.7733 254.453 46.8667 253.6 47.88C252.747 48.8667 251.8 49.6667 250.76 50.28C249.747 50.8933 248.76 51.2 247.8 51.2ZM261.326 51.16C260.339 51.16 259.446 50.84 258.646 50.2C257.873 49.56 257.486 48.5867 257.486 47.28C257.486 46.1867 257.726 45.0267 258.206 43.8C258.713 42.5733 259.366 41.4267 260.166 40.36C260.993 39.2667 261.899 38.3867 262.886 37.72C263.899 37.0267 264.913 36.68 265.926 36.68C266.433 36.68 266.926 36.8267 267.406 37.12C267.886 37.4133 268.126 37.92 268.126 38.64C268.126 39.3067 267.873 40.04 267.366 40.84C266.859 41.64 266.139 42.3867 265.206 43.08C264.806 43.3733 264.299 43.6533 263.686 43.92C263.073 44.1867 262.459 44.4133 261.846 44.6C261.233 44.76 260.726 44.84 260.326 44.84C260.193 45.16 260.059 45.5867 259.926 46.12C259.819 46.6533 259.766 47.2 259.766 47.76C259.766 48.4267 259.899 49.0267 260.166 49.56C260.433 50.0933 260.926 50.36 261.646 50.36C262.526 50.36 263.339 50.1067 264.086 49.6C264.859 49.0933 265.539 48.4533 266.126 47.68C266.739 46.9067 267.259 46.12 267.686 45.32C268.113 44.52 268.446 43.84 268.686 43.28C269.006 43.28 269.166 43.4 269.166 43.64C268.819 44.3867 268.419 45.2 267.966 46.08C267.539 46.96 267.019 47.7867 266.406 48.56C265.819 49.3067 265.099 49.9333 264.246 50.44C263.419 50.92 262.446 51.16 261.326 51.16ZM260.606 44.12C260.979 44.12 261.606 43.9867 262.486 43.72C263.366 43.4267 264.166 42.9733 264.886 42.36C265.579 41.7467 266.113 41.08 266.486 40.36C266.859 39.6133 267.046 38.9867 267.046 38.48C267.046 37.8933 266.833 37.6 266.406 37.6C266.086 37.6 265.646 37.8133 265.086 38.24C264.526 38.6667 263.833 39.3867 263.006 40.4C262.499 41.04 262.019 41.7333 261.566 42.48C261.113 43.2267 260.793 43.7733 260.606 44.12ZM276.96 29.88C276.614 30.3867 276.227 31.0267 275.8 31.8C275.374 32.5733 274.974 33.32 274.6 34.04C274.254 34.76 273.987 35.3067 273.8 35.68H277.48C277.48 35.7867 277.427 35.96 277.32 36.2C277.24 36.44 277.067 36.6133 276.8 36.72H273.32C273 37.44 272.627 38.3067 272.2 39.32C271.8 40.3333 271.4 41.3867 271 42.48C270.627 43.5733 270.307 44.6 270.04 45.56C269.8 46.4933 269.68 47.2533 269.68 47.84C269.68 48.64 269.787 49.24 270 49.64C270.214 50.0133 270.6 50.2 271.16 50.2C271.88 50.2 272.574 49.8533 273.24 49.16C273.907 48.44 274.534 47.5467 275.12 46.48C275.734 45.4133 276.267 44.3467 276.72 43.28C277.04 43.28 277.2 43.4 277.2 43.64C276.907 44.36 276.547 45.1467 276.12 46C275.694 46.8533 275.2 47.68 274.64 48.48C274.107 49.2533 273.494 49.8933 272.8 50.4C272.134 50.88 271.387 51.12 270.56 51.12C269.44 51.12 268.68 50.8133 268.28 50.2C267.88 49.56 267.68 48.7467 267.68 47.76C267.68 47.04 267.814 46.1733 268.08 45.16C268.347 44.12 268.667 43.0533 269.04 41.96C269.44 40.8667 269.827 39.8533 270.2 38.92C270.574 37.96 270.867 37.2267 271.08 36.72H268.52C268.52 36.5067 268.614 36.28 268.8 36.04C268.987 35.8 269.187 35.68 269.4 35.68H271.52C271.734 35.2533 271.974 34.72 272.24 34.08C272.534 33.44 272.92 32.7333 273.4 31.96C273.8 31.32 274.307 30.8133 274.92 30.44C275.56 30.0667 276.24 29.88 276.96 29.88ZM285.407 51.12C284.794 51.12 284.247 50.9467 283.767 50.6C283.314 50.2533 283.087 49.5467 283.087 48.48C283.087 48.0267 283.114 47.6 283.167 47.2C283.247 46.8 283.341 46.3733 283.447 45.92C283.207 46.32 282.874 46.8133 282.447 47.4C282.021 47.9867 281.541 48.56 281.007 49.12C280.501 49.68 279.967 50.1467 279.407 50.52C278.874 50.8933 278.367 51.08 277.887 51.08C277.194 51.08 276.634 50.7733 276.207 50.16C275.781 49.52 275.567 48.6933 275.567 47.68C275.567 46.5867 275.821 45.4133 276.327 44.16C276.834 42.9067 277.527 41.7067 278.407 40.56C279.287 39.4133 280.301 38.48 281.447 37.76C282.594 37.04 283.794 36.68 285.047 36.68C285.661 36.68 286.247 36.7867 286.807 37C287.367 37.1867 287.861 37.5067 288.287 37.96C288.474 38.1467 288.567 38.36 288.567 38.6C288.567 38.76 288.501 38.8933 288.367 39C288.234 39.1067 288.061 39.1333 287.847 39.08C287.554 38.1467 286.927 37.68 285.967 37.68C285.514 37.68 284.994 37.8267 284.407 38.12C283.687 38.4933 282.914 39.0933 282.087 39.92C281.287 40.72 280.527 41.64 279.807 42.68C279.114 43.6933 278.541 44.72 278.087 45.76C277.634 46.8 277.407 47.7467 277.407 48.6C277.407 49.48 277.741 49.92 278.407 49.92C278.994 49.92 279.594 49.64 280.207 49.08C280.847 48.52 281.447 47.8267 282.007 47C282.594 46.1467 283.127 45.3067 283.607 44.48C284.087 43.6533 284.461 42.9867 284.727 42.48C285.127 41.76 285.501 41.16 285.847 40.68C286.194 40.2 286.687 39.96 287.327 39.96C287.621 39.96 287.914 40 288.207 40.08C288.501 40.16 288.807 40.1733 289.127 40.12C288.327 40.92 287.621 41.8667 287.007 42.96C286.421 44.0533 285.967 45.1333 285.647 46.2C285.327 47.24 285.167 48.12 285.167 48.84C285.167 49.64 285.434 50.04 285.967 50.04C286.394 50.04 286.847 49.8 287.327 49.32C287.834 48.84 288.314 48.24 288.767 47.52C289.247 46.7733 289.687 46.0267 290.087 45.28C290.487 44.5067 290.807 43.84 291.047 43.28C291.181 43.28 291.287 43.2933 291.367 43.32C291.474 43.3467 291.527 43.4533 291.527 43.64C291.501 43.7467 291.447 43.8667 291.367 44C291.314 44.1067 291.221 44.3067 291.087 44.6C290.874 45.0267 290.581 45.6 290.207 46.32C289.834 47.04 289.394 47.7733 288.887 48.52C288.381 49.24 287.834 49.8533 287.247 50.36C286.661 50.8667 286.047 51.12 285.407 51.12Z" fill="#A44042"/>
</svg>
